<svg width="24" height="24" viewBox="0 0 24 24" fill="none" xmlns="http://www.w3.org/2000/svg">
<mask id="mask0_334_498" style="mask-type:luminance" maskUnits="userSpaceOnUse" x="0" y="0" width="24" height="24">
<path d="M0 0H24V24H0V0Z" fill="white"/>
</mask>
<g mask="url(#mask0_334_498)">
<path fill-rule="evenodd" clip-rule="evenodd" d="M14.5795 4.45452C15.0188 4.01519 15.7312 4.01519 16.1705 4.45452C16.6098 4.89386 16.6098 5.60618 16.1705 6.04552L10.216 12L16.1705 17.9545C16.6098 18.3938 16.6098 19.1062 16.1705 19.5455C15.7312 19.9848 15.0188 19.9848 14.5795 19.5455L7.8295 12.7955C7.80345 12.7695 7.77874 12.7422 7.75536 12.7137C7.73199 12.6853 7.71007 12.6557 7.6896 12.625C7.66913 12.5944 7.65021 12.5629 7.63284 12.5303C7.61547 12.4979 7.59974 12.4646 7.58564 12.4305C7.57154 12.3965 7.55914 12.3619 7.54844 12.3266C7.53775 12.2914 7.52881 12.2557 7.52162 12.2195C7.51443 12.1834 7.50903 12.147 7.50542 12.1103C7.50181 12.0737 7.5 12.0369 7.5 12C7.5 11.9632 7.50181 11.9264 7.50542 11.8897C7.50903 11.8531 7.51443 11.8167 7.52162 11.7805C7.52881 11.7444 7.53775 11.7087 7.54844 11.6734C7.55914 11.6382 7.57154 11.6035 7.58564 11.5695C7.59974 11.5355 7.61547 11.5022 7.63284 11.4697C7.65021 11.4372 7.66913 11.4056 7.6896 11.375C7.71007 11.3444 7.73199 11.3148 7.75536 11.2863C7.77874 11.2579 7.80345 11.2306 7.8295 11.2045L14.5795 4.45452Z" fill="#4B5563"/>
</g>
</svg>
